<svg width="284" height="113" viewBox="0 0 284 113" fill="none" xmlns="http://www.w3.org/2000/svg">
<g filter="url(#filter0_d_9727_9)">
<rect x="2" y="1" width="279.282" height="108.355" fill="#1351AE"/>
<ellipse cx="141.641" cy="55.1776" rx="139.641" ry="54.1776" fill="#FEDB01"/>
<path d="M43.8137 49.5818H32.6145V47.1935C32.6145 46.079 32.4713 45.3692 32.1849 45.064C31.8985 44.7588 31.4211 44.6063 30.7528 44.6063C30.0272 44.6063 29.4734 44.8119 29.0915 45.2232C28.7287 45.6345 28.5473 46.2581 28.5473 47.094C28.5473 48.1687 28.7573 48.9781 29.1774 49.5221C29.5784 50.0661 30.7146 50.7228 32.5859 51.4924C37.9516 53.7081 41.3314 55.5259 42.7253 56.9456C44.1192 58.3652 44.8162 60.654 44.8162 63.8118C44.8162 66.1072 44.4247 67.7988 43.6418 68.8868C42.878 69.9748 41.3886 70.8903 39.1736 71.6333C36.9586 72.363 34.3808 72.7279 31.4402 72.7279C28.2131 72.7279 25.4539 72.3033 23.1625 71.4542C20.8902 70.605 19.4008 69.5237 18.6943 68.2101C17.9878 66.8966 17.6346 65.0324 17.6346 62.6177V60.508H28.8337V64.4287C28.8337 65.6361 28.9865 66.4123 29.292 66.7573C29.6166 67.1023 30.1799 67.2747 30.9819 67.2747C31.7839 67.2747 32.3758 67.0558 32.7577 66.618C33.1587 66.1801 33.3592 65.53 33.3592 64.6676C33.3592 62.7702 32.9869 61.5297 32.2422 60.9459C31.4784 60.3621 29.5975 59.3869 26.5996 58.0203C23.6017 56.6404 21.6158 55.6387 20.642 55.0151C19.6682 54.3915 18.8566 53.529 18.2074 52.4278C17.5773 51.3265 17.2622 49.9201 17.2622 48.2085C17.2622 45.7407 17.7109 43.9362 18.6084 42.7952C19.525 41.6541 20.9953 40.7651 23.0193 40.1283C25.0434 39.4781 27.4875 39.1531 30.3518 39.1531C33.4833 39.1531 36.1471 39.5047 38.343 40.2079C40.558 40.9111 42.0188 41.8001 42.7253 42.8748C43.4509 43.9362 43.8137 45.7473 43.8137 48.308V49.5818Z" fill="#1351AE"/>
<path d="M60.6841 39.8297V72.0513H48.6256V39.8297H60.6841Z" fill="#1351AE"/>
<path d="M89.8134 39.8297V46.278H82.6528V72.0513H70.5943V46.278H63.4624V39.8297H89.8134Z" fill="#1351AE"/>
<path d="M92.563 39.8297H112.67V46.278H104.621V52.388H112.154V58.5178H104.621V65.603H113.472V72.0513H92.563V39.8297Z" fill="#1351AE"/>
<path d="M155.49 53.8806H143.432V48.2682C143.432 46.6363 143.298 45.6213 143.031 45.2232C142.783 44.8119 142.219 44.6063 141.341 44.6063C140.348 44.6063 139.718 44.8517 139.451 45.3426C139.183 45.8335 139.05 46.895 139.05 48.527V63.4933C139.05 65.059 139.183 66.0806 139.451 66.5583C139.718 67.0359 140.319 67.2747 141.255 67.2747C142.153 67.2747 142.735 67.0359 143.002 66.5583C143.289 66.0806 143.432 64.9595 143.432 63.1948V59.1547H155.49V60.4085C155.49 63.7388 155.147 66.1005 154.459 67.4937C153.791 68.8868 152.292 70.1075 149.962 71.1557C147.652 72.2038 144.797 72.7279 141.398 72.7279C137.866 72.7279 134.954 72.2834 132.662 71.3945C130.371 70.5055 128.853 69.2782 128.108 67.7126C127.364 66.1337 126.991 63.7653 126.991 60.6075V51.1938C126.991 48.8719 127.106 47.1338 127.335 45.9795C127.564 44.8119 128.242 43.6908 129.368 42.616C130.514 41.5413 132.09 40.6988 134.094 40.0885C136.119 39.4649 138.439 39.1531 141.055 39.1531C144.606 39.1531 147.537 39.6307 149.848 40.586C152.158 41.5413 153.676 42.7355 154.402 44.1684C155.128 45.5881 155.49 47.8039 155.49 50.8157V53.8806Z" fill="#1351AE"/>
<path d="M171.874 39.8297V65.603H179.206V72.0513H159.815V39.8297H171.874Z" fill="#1351AE"/>
<path d="M208.794 58.6969C208.794 61.9343 208.679 64.2297 208.45 65.5831C208.24 66.9231 207.553 68.1504 206.388 69.265C205.242 70.3795 203.686 71.2353 201.719 71.8323C199.752 72.4294 197.461 72.7279 194.845 72.7279C192.363 72.7279 190.129 72.4493 188.143 71.892C186.176 71.3215 184.591 70.4723 183.388 69.3446C182.185 68.2168 181.469 66.9895 181.24 65.6627C181.011 64.3359 180.896 62.014 180.896 58.6969V53.1841C180.896 49.9466 181.001 47.6579 181.211 46.3178C181.44 44.9645 182.128 43.7306 183.273 42.616C184.438 41.5015 186.004 40.6457 187.971 40.0487C189.938 39.4516 192.229 39.1531 194.845 39.1531C197.327 39.1531 199.552 39.4383 201.519 40.0089C203.505 40.5661 205.099 41.4086 206.302 42.5364C207.505 43.6642 208.221 44.8915 208.45 46.2183C208.679 47.5451 208.794 49.867 208.794 53.1841V58.6969ZM196.735 48.109C196.735 46.6097 196.611 45.6544 196.363 45.2431C196.134 44.8185 195.647 44.6063 194.902 44.6063C194.272 44.6063 193.785 44.7787 193.441 45.1237C193.117 45.4554 192.955 46.4505 192.955 48.109V63.155C192.955 65.0258 193.06 66.1801 193.27 66.618C193.499 67.0558 194.014 67.2747 194.816 67.2747C195.637 67.2747 196.163 67.0227 196.392 66.5185C196.621 66.0143 196.735 64.8135 196.735 62.9162V48.109Z" fill="#1351AE"/>
<path d="M240.243 39.8297V72.0513H229.674L223.401 57.4033V72.0513H213.319V39.8297H223.401L230.161 54.3384V39.8297H240.243Z" fill="#1351AE"/>
<path d="M245.112 39.8297H265.219V46.278H257.171V52.388H264.704V58.5178H257.171V65.603H266.021V72.0513H245.112V39.8297Z" fill="#1351AE"/>
</g>
<defs>
<filter id="filter0_d_9727_9" x="0" y="0" width="283.282" height="112.355" filterUnits="userSpaceOnUse" color-interpolation-filters="sRGB">
<feFlood flood-opacity="0" result="BackgroundImageFix"/>
<feColorMatrix in="SourceAlpha" type="matrix" values="0 0 0 0 0 0 0 0 0 0 0 0 0 0 0 0 0 0 127 0" result="hardAlpha"/>
<feOffset dy="1"/>
<feGaussianBlur stdDeviation="1"/>
<feColorMatrix type="matrix" values="0 0 0 0 0 0 0 0 0 0 0 0 0 0 0 0 0 0 0.25 0"/>
<feBlend mode="normal" in2="BackgroundImageFix" result="effect1_dropShadow_9727_9"/>
<feBlend mode="normal" in="SourceGraphic" in2="effect1_dropShadow_9727_9" result="shape"/>
</filter>
</defs>
</svg>
